<svg width="1370" height="153" viewBox="0 0 1370 153" fill="none" xmlns="http://www.w3.org/2000/svg">
<g clip-path="url(#clip0_1828_137)">
<path d="M582.4 7.99999H636.4V148H587.2L514.4 71.8V148H460.4V7.99999H519.6L582.4 75.4V7.99999Z" fill="#ECF2FD"/>
<path d="M783.181 7.99999H837.181V148H787.981L715.181 71.8V148H661.181V7.99999H720.381L783.181 75.4V7.99999Z" fill="#ECF2FD"/>
<path d="M916.763 109.2H1019.96V148H861.962V7.99999H1017.76V46.8H916.763V59.8H997.962V94.6H916.763V109.2Z" fill="#ECF2FD"/>
<path d="M1123.16 110C1138.36 110 1150.96 104.2 1159.56 91L1204.56 114.8C1192.16 136.8 1161.56 152.8 1121.96 152.8C1068.76 152.8 1030.76 126.2 1030.76 78C1030.76 29.8 1068.76 3.19999 1123.96 3.19999C1161.56 3.19999 1191.76 19.6 1203.76 40.8L1158.76 64.6C1150.56 52.2 1138.36 46 1123.16 46C1101.96 46 1087.56 58 1087.56 78C1087.56 98 1101.96 110 1123.16 110Z" fill="#ECF2FD"/>
<path d="M1370.41 7.99999V49H1317.61V148H1261.61V49H1208.81V7.99999H1370.41Z" fill="#ECF2FD"/>
<path fill-rule="evenodd" clip-rule="evenodd" d="M223.158 1.6731H76.1343C48.7398 1.67632 26.7951 14.3629 12.4751 37.2177C5.73639 47.9728 1.19293 59.5025 0.202686 72.0129C-0.795172 84.6196 1.92428 96.8543 7.63519 108.779C14.202 122.49 23.4978 133.258 35.8938 140.371C48.1099 147.381 61.8787 150.006 76.1313 150.008L201.442 150.008L277.042 52.8089L247.019 29.4576L182.84 111.973L76.1373 111.973L39.3303 68.7523C40.3642 65.3424 42.0816 61.6011 44.7061 57.4124C52.2983 45.2952 62.2595 39.7103 76.1343 39.7081H193.575L223.158 1.6731ZM39.3303 68.7523V68.7523ZM39.3303 68.7523C38.6583 70.9687 38.2749 73.0459 38.1191 75.0141C37.7312 79.9146 38.6446 85.4711 41.9389 92.3496C45.7173 100.239 50.12 104.682 54.8237 107.381C59.707 110.183 66.4409 111.971 76.1373 111.973L39.3303 68.7523Z" fill="#00469F"/>
<path d="M340.125 0C411.821 0 448 23.3839 448 76.108C448 128.832 411.821 152.437 340.125 152.437C268.209 152.437 232.25 128.832 232.25 76.108C232.25 23.3839 268.209 0 340.125 0ZM340.125 114.052C386.011 114.052 402.556 107.875 402.556 76.108C402.556 44.3412 386.011 38.3849 340.125 38.3849C294.24 38.3849 277.695 44.3412 277.695 76.108C277.695 107.875 294.24 114.052 340.125 114.052Z" fill="#ECF2FD"/>
</g>
<defs>
<clipPath id="clip0_1828_137">
<rect width="1370" height="153" fill="white"/>
</clipPath>
</defs>
</svg>
