<svg width="96" height="96" viewBox="0 0 96 96" fill="none" xmlns="http://www.w3.org/2000/svg">
<path fill-rule="evenodd" clip-rule="evenodd" d="M58.7875 44.7293C60.1811 45.2779 61.6991 45.5792 63.2875 45.5792C70.0749 45.5792 75.5772 40.077 75.5772 33.2896C75.5772 26.5022 70.0749 21 63.2875 21C61.6991 21 60.1811 21.3013 58.7875 21.85C63.3489 23.6457 66.5772 28.0906 66.5772 33.2896C66.5772 38.4886 63.3489 42.9335 58.7875 44.7293ZM77.8971 74.5322C79.554 74.5322 80.9177 73.1831 80.6963 71.5411C79.9659 66.1247 77.2668 61.0509 72.9781 57.1521C68.981 53.5184 63.8613 51.1399 58.36 50.2957C59.8373 50.0691 61.342 49.953 62.86 49.953C70.0307 49.953 76.9077 52.5426 81.9781 57.1521C86.2668 61.0509 88.9659 66.1247 89.6963 71.5411C89.9177 73.1831 88.554 74.5322 86.8971 74.5322H77.8971Z" fill="#00469F"/>
<path fill-rule="evenodd" clip-rule="evenodd" d="M48.2875 45.5792C55.0749 45.5792 60.5771 40.077 60.5771 33.2896C60.5771 26.5022 55.0749 21 48.2875 21C41.5002 21 35.9979 26.5022 35.9979 33.2896C35.9979 40.077 41.5002 45.5792 48.2875 45.5792ZM74.6963 71.5411C74.9177 73.1831 73.554 74.5322 71.8971 74.5322H47.86L23.8228 74.5322C22.166 74.5322 20.8022 73.1831 21.0237 71.5411C21.754 66.1247 24.4531 61.0509 28.7418 57.1521C33.8123 52.5426 40.6893 49.953 47.86 49.953C55.0307 49.953 61.9077 52.5426 66.9781 57.1521C71.2668 61.0509 73.9659 66.1247 74.6963 71.5411Z" fill="#00469F"/>
<path fill-rule="evenodd" clip-rule="evenodd" d="M21.1428 33.2896C21.1428 40.077 26.645 45.5792 33.4324 45.5792C34.8328 45.5792 36.1785 45.345 37.4324 44.9136C32.6088 43.2541 29.1428 38.6766 29.1428 33.2896C29.1428 27.9026 32.6088 23.3252 37.4324 21.6656C36.1785 21.2342 34.8328 21 33.4324 21C26.645 21 21.1428 26.5022 21.1428 33.2896ZM9.82281 74.5322C8.16595 74.5322 6.80225 73.1831 7.02365 71.5411C7.754 66.1247 10.4531 61.0509 14.7418 57.1521C19.8123 52.5426 26.6893 49.953 33.86 49.953C35.207 49.953 36.5437 50.0444 37.86 50.2234C32.1693 50.9972 26.8598 53.4085 22.7418 57.1521C18.4531 61.0509 15.754 66.1247 15.0237 71.5411C14.8022 73.1831 16.1659 74.5322 17.8228 74.5322H9.82281Z" fill="#00469F"/>
</svg>
