<svg width="96" height="96" viewBox="0 0 96 96" fill="none" xmlns="http://www.w3.org/2000/svg">
<path fill-rule="evenodd" clip-rule="evenodd" d="M80 48C80 65.6731 65.6731 80 48 80C30.3269 80 16 65.6731 16 48C16 30.3269 30.3269 16 48 16C65.6731 16 80 30.3269 80 48ZM44 33C44 30.7909 45.7909 29 48 29C50.2091 29 52 30.7909 52 33V47.3431L62.3848 57.7279C63.9469 59.29 63.9469 61.8227 62.3848 63.3848C60.8227 64.9469 58.29 64.9469 56.7279 63.3848L44.3215 50.9784L44 51V50.6569V33Z" fill="#00469F"/>
</svg>
